<svg xmlns="http://www.w3.org/2000/svg" xmlns:xlink="http://www.w3.org/1999/xlink" viewBox="0 0 718 718" width="718" height="718">
<rect width="718" height="718" rx="10" fill="#ffffff"/>
<text x="359.0" y="24" text-anchor="middle" fill="#000000" font-size="14" font-weight="bold">Awesome Skills</text>
<text x="359.0" y="42" text-anchor="middle" fill="#333333" font-size="10">每日热门 (2026-03-02)</text>
<rect x="24" y="56" width="670" height="32" fill="#f6f8fa" rx="4"/>
<text x="44.0" y="78" text-anchor="middle" fill="#333333" font-size="11">#</text>
<text x="174.0" y="78" text-anchor="middle" fill="#333333" font-size="11">项目</text>
<text x="324.0" y="78" text-anchor="middle" fill="#333333" font-size="11">⭐</text>
<text x="396.0" y="78" text-anchor="middle" fill="#333333" font-size="11">📈 日增</text>
<text x="561.0" y="78" text-anchor="middle" fill="#333333" font-size="11">描述</text>
<line x1="24" y1="88" x2="694" y2="88" stroke="#d0d7de" stroke-width="1"/>
<text x="44.0" y="104" text-anchor="middle" fill="#000000" font-size="11">1</text>
<text x="174.0" y="104" text-anchor="middle" fill="#000000" font-size="11">affaan-m/everything-claud...</text>
<text x="324.0" y="104" text-anchor="middle" fill="#000000" font-size="11">55,654</text>
<text x="396.0" y="104" text-anchor="middle" fill="#000000" font-size="11">+517</text>
<text x="561.0" y="104" text-anchor="middle" fill="#000000" font-size="11">经纪人利用性能优化系统,技能,本能,</text>
<text x="561.0" y="118" text-anchor="middle" fill="#000000" font-size="11">记忆,安全,以及对克劳德代码,Cod</text>
<line x1="24" y1="138" x2="694" y2="138" stroke="#d0d7de" stroke-width="0.5"/>
<text x="44.0" y="150" text-anchor="middle" fill="#000000" font-size="11">2</text>
<text x="174.0" y="150" text-anchor="middle" fill="#000000" font-size="11">VoltAgent/awesome-opencla...</text>
<text x="324.0" y="150" text-anchor="middle" fill="#000000" font-size="11">23,792</text>
<text x="396.0" y="150" text-anchor="middle" fill="#000000" font-size="11">+448</text>
<text x="561.0" y="150" text-anchor="middle" fill="#000000" font-size="11">5,400+技能从官方OpenCla</text>
<text x="561.0" y="164" text-anchor="middle" fill="#000000" font-size="11">w技能登记册中过和分类.</text>
<line x1="24" y1="184" x2="694" y2="184" stroke="#d0d7de" stroke-width="0.5"/>
<text x="44.0" y="196" text-anchor="middle" fill="#000000" font-size="11">3</text>
<text x="174.0" y="196" text-anchor="middle" fill="#000000" font-size="11">alibaba/OpenSandbox</text>
<text x="324.0" y="196" text-anchor="middle" fill="#000000" font-size="11">3,006</text>
<text x="396.0" y="196" text-anchor="middle" fill="#000000" font-size="11">+423</text>
<text x="561.0" y="196" text-anchor="middle" fill="#000000" font-size="11">开放Sandbox是一个用于人工智能</text>
<text x="561.0" y="210" text-anchor="middle" fill="#000000" font-size="11">应用的一般用途沙盒平台,提供多语言S</text>
<line x1="24" y1="230" x2="694" y2="230" stroke="#d0d7de" stroke-width="0.5"/>
<text x="44.0" y="242" text-anchor="middle" fill="#000000" font-size="11">4</text>
<text x="174.0" y="242" text-anchor="middle" fill="#000000" font-size="11">obra/superpowers</text>
<text x="324.0" y="242" text-anchor="middle" fill="#000000" font-size="11">66,589</text>
<text x="396.0" y="242" text-anchor="middle" fill="#000000" font-size="11">+370</text>
<text x="561.0" y="242" text-anchor="middle" fill="#000000" font-size="11">提供一个有效的代理技能框架和软件开发</text>
<text x="561.0" y="256" text-anchor="middle" fill="#000000" font-size="11">方法.</text>
<line x1="24" y1="276" x2="694" y2="276" stroke="#d0d7de" stroke-width="0.5"/>
<text x="44.0" y="288" text-anchor="middle" fill="#000000" font-size="11">5</text>
<text x="174.0" y="288" text-anchor="middle" fill="#000000" font-size="11">anthropics/skills</text>
<text x="324.0" y="288" text-anchor="middle" fill="#000000" font-size="11">80,013</text>
<text x="396.0" y="288" text-anchor="middle" fill="#000000" font-size="11">+311</text>
<text x="561.0" y="288" text-anchor="middle" fill="#000000" font-size="11">代理技能公开存储库</text>
<line x1="24" y1="322" x2="694" y2="322" stroke="#d0d7de" stroke-width="0.5"/>
<text x="44.0" y="334" text-anchor="middle" fill="#000000" font-size="11">6</text>
<text x="174.0" y="334" text-anchor="middle" fill="#000000" font-size="11">mksglu/claude-context-mode</text>
<text x="324.0" y="334" text-anchor="middle" fill="#000000" font-size="11">937</text>
<text x="396.0" y="334" text-anchor="middle" fill="#000000" font-size="11">+297</text>
<text x="561.0" y="334" text-anchor="middle" fill="#000000" font-size="11">停止对大输出失去背景.</text>
<line x1="24" y1="368" x2="694" y2="368" stroke="#d0d7de" stroke-width="0.5"/>
<text x="44.0" y="380" text-anchor="middle" fill="#000000" font-size="11">7</text>
<text x="174.0" y="380" text-anchor="middle" fill="#000000" font-size="11">block/goose</text>
<text x="324.0" y="380" text-anchor="middle" fill="#000000" font-size="11">31,824</text>
<text x="396.0" y="380" text-anchor="middle" fill="#000000" font-size="11">+278</text>
<text x="561.0" y="380" text-anchor="middle" fill="#000000" font-size="11">开源,可扩展的AI代理,超越代码建议</text>
<text x="561.0" y="394" text-anchor="middle" fill="#000000" font-size="11"> - 安装,执行,编辑和测试任何LL</text>
<line x1="24" y1="414" x2="694" y2="414" stroke="#d0d7de" stroke-width="0.5"/>
<text x="44.0" y="426" text-anchor="middle" fill="#000000" font-size="11">8</text>
<text x="174.0" y="426" text-anchor="middle" fill="#000000" font-size="11">nicobailon/visual-explainer</text>
<text x="324.0" y="426" text-anchor="middle" fill="#000000" font-size="11">3,789</text>
<text x="396.0" y="426" text-anchor="middle" fill="#000000" font-size="11">+274</text>
<text x="561.0" y="426" text-anchor="middle" fill="#000000" font-size="11">代理技能,生成丰富的HTML页面或幻</text>
<text x="561.0" y="440" text-anchor="middle" fill="#000000" font-size="11">灯片,用于图表,差异评价,计划审计,</text>
<line x1="24" y1="460" x2="694" y2="460" stroke="#d0d7de" stroke-width="0.5"/>
<text x="44.0" y="472" text-anchor="middle" fill="#000000" font-size="11">9</text>
<text x="174.0" y="472" text-anchor="middle" fill="#000000" font-size="11">ruvnet/ruflo</text>
<text x="324.0" y="472" text-anchor="middle" fill="#000000" font-size="11">17,001</text>
<text x="396.0" y="472" text-anchor="middle" fill="#000000" font-size="11">+268</text>
<text x="561.0" y="472" text-anchor="middle" fill="#000000" font-size="11"> 克劳德的领先代理配套平台.部署智能</text>
<text x="561.0" y="486" text-anchor="middle" fill="#000000" font-size="11">多代理群体,协调自主工作流程,构建对</text>
<line x1="24" y1="506" x2="694" y2="506" stroke="#d0d7de" stroke-width="0.5"/>
<text x="44.0" y="518" text-anchor="middle" fill="#000000" font-size="11">10</text>
<text x="174.0" y="518" text-anchor="middle" fill="#000000" font-size="11">gsd-build/get-shit-done</text>
<text x="324.0" y="518" text-anchor="middle" fill="#000000" font-size="11">22,622</text>
<text x="396.0" y="518" text-anchor="middle" fill="#000000" font-size="11">+205</text>
<text x="561.0" y="518" text-anchor="middle" fill="#000000" font-size="11">对于TÂCHES的Claude</text>
<text x="561.0" y="532" text-anchor="middle" fill="#000000" font-size="11">Code,一个轻量级而强大的超级提示,文</text>
<line x1="24" y1="552" x2="694" y2="552" stroke="#d0d7de" stroke-width="0.5"/>
<a xlink:href="https://github.com/lllray/awesome-skills"><text x="694" y="708" text-anchor="end" fill="#57606a" font-size="10">github.com/lllray/awesome-skills</text></a>
</svg>